<?xml version="1.0" encoding="utf-8"?>
<!-- Generator: Adobe Illustrator 24.1.2, SVG Export Plug-In . SVG Version: 6.00 Build 0)  -->
<svg version="1.1" id="Слой_1" xmlns="http://www.w3.org/2000/svg" xmlns:xlink="http://www.w3.org/1999/xlink" x="0px" y="0px"
	 viewBox="0 0 494.2 50" style="enable-background:new 0 0 494.2 50;" xml:space="preserve">
<style type="text/css">
	.st0{fill:#FFFFFF;}
	.st1{fill:#FF5E29;}
</style>
<g>
	<path class="st0" d="M206.5,18.8c-0.8,0.4-1,1.2-1.3,1.8c-3.1,5.8-6.1,11.7-9.2,17.5c-0.5,0.9-0.8,1.7-2.1,1.8
		c-1.3,0-1.8-0.7-2.3-1.7c-3.1-5.8-6.1-11.7-9.2-17.5c-0.4-0.7-0.8-1.5-1.3-2.4c-0.6,0.9-0.4,1.7-0.4,2.4c0,6.7-0.1,13.5,0,20.2
		c0,2.1-0.5,2.8-2.7,2.8c-2.4,0-2.4-1.1-2.4-2.9c0-10.5,0-20.9,0.1-31.4c0-1-0.7-2.5,1.1-2.9c2.4-0.5,3.9,0,4.8,1.8
		c3.2,6,6.3,12.1,9.5,18.1c0.8,1.6,1.5,3.3,2.8,4.9c1.6-3.1,3.2-6,4.7-8.9c2.5-4.8,5-9.6,7.5-14.4c0.7-1.4,3.9-2.1,5.1-1.3
		c0.6,0.4,0.5,1,0.5,1.5c0,11.2,0,22.5,0,33.7c0,2.3-1.6,1.6-2.8,1.7c-1.4,0.1-2.2-0.2-2.2-1.9c0.1-6.9,0-13.8,0-20.6
		C206.8,20.3,207,19.5,206.5,18.8z"/>
	<path class="st1" d="M362.6,24.8c0-5.4,0-10.8,0-16.2c0-1.6,0.4-2.3,2.1-2.2c4.6,0.1,9.3-0.1,13.9,0.1c9.8,0.3,17.8,8.3,18,17.9
		c0.2,9.9-7.3,18.4-17.3,19c-5,0.3-10.1,0.1-15.2,0.2c-1.4,0-1.6-0.7-1.6-1.9C362.6,36.1,362.6,30.5,362.6,24.8z M367.6,25
		c0,3.9,0,7.9,0,11.8c0,1.2,0.4,1.8,1.7,1.8c3.2-0.1,6.3,0.1,9.5-0.1c6.7-0.4,12.5-6,12.9-12.3c0.5-7-4.1-13.2-11.1-14.5
		c-3.5-0.7-7.1-0.1-10.7-0.3c-1.7-0.1-2.4,0.5-2.3,2.3C367.6,17.4,367.6,21.2,367.6,25z"/>
	<path class="st1" d="M329.2,43.6c-10.7-0.1-19-8.5-18.9-19.1c0.2-10.2,8.9-18.6,19.2-18.4c10.4,0.2,18.8,8.7,18.8,18.8
		C348.2,35.4,339.6,43.7,329.2,43.6z M329.3,38.6c7.8-0.1,14-6.2,14-13.8c0-7.5-6.5-13.8-14.2-13.7c-7.5,0.1-13.8,6.5-13.8,13.9
		C315.4,32.6,321.6,38.7,329.3,38.6z"/>
	<path class="st1" d="M411,25c0-5.5,0-11,0-16.4c0-1.6,0.5-2.2,2.2-2.2c6.8,0.1,13.6,0.1,20.4,0c2,0,2.3,0.8,2.3,2.5
		c0,1.6-0.1,2.6-2.2,2.6c-5.2-0.1-10.4,0-15.6-0.1c-1.5,0-2.2,0.4-2.1,2c0.1,2.2,0.1,4.4,0,6.5c-0.1,1.6,0.5,2.1,2.1,2.1
		c4.4-0.1,8.8,0.1,13.3-0.1c2.1-0.1,2.4,0.8,2.4,2.6c0,1.8-0.5,2.5-2.4,2.5c-4.3-0.1-8.7,0-13-0.1c-1.7,0-2.4,0.4-2.3,2.2
		c0.1,2.4,0.1,4.9,0,7.4c-0.1,1.6,0.5,2.1,2.1,2c5.3-0.1,10.7,0,16-0.1c1.9,0,2.4,0.6,2.4,2.4c0,1.7-0.3,2.7-2.4,2.7
		c-6.9-0.1-13.7-0.1-20.6,0c-2,0-2.5-0.7-2.4-2.6C411,35.7,411,30.4,411,25z"/>
	<path class="st0" d="M106.6,43.5c-1.7,0.5-2.7-0.5-3.4-2.3c-0.8-2.2-1.9-4.2-2.8-6.3c-0.4-1-1.1-1.5-2.3-1.5c-4.8,0-9.5,0-14.3,0
		c-1.2,0-1.9,0.4-2.4,1.6c-1,2.3-2,4.6-3.1,6.9c-0.6,1.4-4.5,2.4-5.7,1.5c-0.7-0.5-0.1-1.2,0.2-1.7c2.2-5,4.5-10,6.8-14.9
		c2.8-6.2,5.7-12.4,8.5-18.6c0.6-1.3,1.3-1.9,2.8-1.9c1.5,0,2.1,0.7,2.6,1.9c5,10.9,10.1,21.8,15.1,32.6
		C109.9,43.5,109.8,43.5,106.6,43.5z M91.1,15c-0.2,0-0.4,0-0.6,0c-1.8,4.1-3.7,8.1-5.5,12.2c-0.3,0.7-0.2,1.2,0.7,1.2
		c3.4,0,6.9,0,10.3,0c1,0,1-0.5,0.7-1.2C94.8,23.1,93,19.1,91.1,15z"/>
	<path class="st0" d="M242,33.4c-2.3,0-4.6,0.1-6.9,0c-1.3,0-2,0.4-2.6,1.6c-1,2.4-2.1,4.7-3.2,7.1c-0.5,1.2-4.7,2.1-5.6,1.2
		c-0.6-0.6,0-1.2,0.2-1.7c2.3-5.1,4.6-10.2,7-15.3c2.8-6.1,5.6-12.1,8.3-18.2c0.5-1.2,1.2-1.9,2.7-1.8c1.4,0,2.1,0.5,2.7,1.8
		c5.1,11.1,10.3,22.3,15.5,33.4c0.7,1.5,0.6,2-1.2,2.1c-2.5,0.2-4.1-0.4-4.8-3.1c-0.3-1.3-1.3-2.4-1.6-3.6c-0.8-3-2.6-4-5.6-3.5
		C245.3,33.6,243.7,33.4,242,33.4z M242.3,15c-0.2,0-0.4,0-0.6,0c-1.8,4.1-3.7,8.1-5.5,12.2c-0.3,0.8-0.1,1.2,0.8,1.2
		c3.4,0,6.9,0,10.3,0c0.7,0,1.1-0.3,0.8-1C246.1,23.3,244.2,19.1,242.3,15z"/>
	<path class="st0" d="M42.2,25.7c3.9-4.2,7.4-8,10.9-11.8c1.9-2.1,3.9-4.2,5.8-6.3c1-1,2.1-1.6,3.3-0.6c1.3,1,1.4,3,0.2,4.2
		c-3.4,3.7-6.7,7.4-10.2,10.9c-1,1.1-0.9,1.8-0.1,2.8c3.8,4.7,7.6,9.3,11.4,14c1,1.2,0.8,3.6-0.5,4.4c-1.4,0.9-2.5,0-3.4-1.1
		c-3.6-4.5-7.4-9-11-13.6c-0.9-1.1-1.5-1.3-2.4-0.2c-1.2,1.4-2.4,2.7-3.7,4.1c-0.6,0.7-0.8,1.4-0.8,2.3c0,2.4-0.1,4.8,0,7.2
		c0.1,2-1.2,1.7-2.4,1.7c-1.1,0-2.6,0.5-2.6-1.6c0-11.2,0-22.5,0-33.7c0-2,1.3-1.8,2.5-1.8c1.3,0,2.6-0.3,2.5,1.8
		c-0.1,5.2,0,10.4,0,15.6C42,24.2,42.1,24.6,42.2,25.7z"/>
	<path class="st1" d="M286.8,43.6c-10.2,0-18.4-7.8-19-17.9c-0.5-9.6,6.9-18.1,16.8-19.3c5.9-0.7,10.9,1.3,15.3,4.9
		c0.9,0.7,1.1,1.4,0.1,2.2c-0.4,0.3-0.7,0.7-1,1c-0.9,1.2-1.7,1.1-2.9,0.1c-5-4.2-11.3-4.7-16.6-1.5c-6.8,4.1-8.8,12.5-4.7,19
		c4.3,6.7,13.2,8.6,19.8,4.2c0.6-0.4,1.2-0.8,1.7-1.3c0.8-0.9,1.5-0.9,2.5-0.1c2.7,2.2,2.7,2.4-0.1,4.5
		C295.2,42.2,291.3,43.6,286.8,43.6z"/>
	<path class="st0" d="M135.5,21.1c0,4.1,0.1,8.1,0,12.2c-0.1,4.3-1.8,7.8-6,9.5c-4.3,1.7-9.5,0.4-12.5-3c-0.2-0.2-0.3-0.4-0.5-0.7
		c-1.9-2.3-1.5-4,1.1-5.5c0.9-0.5,1.1,0.3,1.4,0.7c1.2,1.7,2.5,3.2,4.6,3.9c3.8,1.2,6.8-0.6,7-4.6c0.2-6.9,0.1-13.8,0.1-20.6
		c0-1.4-0.7-1.6-1.9-1.6c-2.9,0-5.8-0.1-8.6,0c-2,0.1-1.9-1.1-1.9-2.4c0-1.4,0-2.6,2-2.6c4.5,0.1,9,0.1,13.5,0c1.5,0,1.9,0.6,1.9,2
		C135.5,12.6,135.5,16.8,135.5,21.1C135.5,21.1,135.5,21.1,135.5,21.1z"/>
	<path class="st0" d="M447.8,49.8c-3.1,0-3,0-2.2-2.5c4.8-14.9,9.6-29.9,14.4-44.8c0.6-1.9,3.5-3,5.2-2.1c0.8,0.5,0.3,1.1,0.2,1.7
		c-1.2,3.7-2.4,7.5-3.5,11.2c-3.6,11.3-7.3,22.7-10.9,34C450.3,49.1,449.6,50.5,447.8,49.8z"/>
	<path class="st0" d="M8.6,26.3c4,1.9,8,3.7,12,5.6c2.4,1.1,3.4,3.3,2.5,5.7c-0.4,1.2-1.1,0.4-1.7,0.2C16.2,35.4,11.1,33,6,30.6
		c-1.3-0.6-2.7-1.3-4-1.8C0.6,28.2,0,27.5,0,25.9c0-1.6,0.7-2.2,2-2.8c6.4-2.9,12.7-5.8,19.1-8.8c1.6-0.7,2-0.5,2.1,1.3
		c0.2,2.4-0.6,3.8-3,4.7c-4,1.6-7.7,3.5-11.6,5.3C8.6,25.9,8.6,26.1,8.6,26.3z"/>
	<path class="st0" d="M486.3,25.9c-4.7-2.2-8.8-4.1-12.9-6c-2-0.9-3-3.5-2.2-5.5c0.5-1.2,1.3-0.4,1.9-0.1c4.8,2.2,9.5,4.4,14.3,6.6
		c1.8,0.8,3.5,1.7,5.3,2.5c1.2,0.5,1.4,1.4,1.4,2.5c0,1.1-0.2,2-1.4,2.6c-6.7,3.1-13.4,6.2-20,9.3c-1.3,0.6-1.7,0.2-1.7-1.2
		c-0.1-3.5-0.1-3.5,3.1-5C478.1,29.8,481.9,28,486.3,25.9z"/>
	<path class="st0" d="M157.8,25.1c0,5.5-0.1,10.9,0,16.4c0,2-0.9,2.1-2.4,2.1c-1.5,0-2.6,0-2.6-2.1c0.1-10.9,0.1-21.9,0-32.8
		c0-2,0.9-2.2,2.6-2.3c1.7,0,2.5,0.3,2.5,2.3C157.7,14.1,157.8,19.6,157.8,25.1z"/>
</g>
</svg>
